<svg xmlns="http://www.w3.org/2000/svg" viewBox="0 0 200 200">
  <circle cx="100" cy="100" r="90" fill="#2C3E50" />
  
  <path d="M60 120 L140 120 L150 140 L50 140 Z" fill="#E74C3C"/>
  <rect x="90" y="90" width="20" height="30" fill="#E74C3C"/>
  
  <g>
    <rect x="70" y="60" width="15" height="15" rx="2" fill="#3498DB"/>
    <rect x="92" y="60" width="15" height="15" rx="2" fill="#2ECC71"/>
    <rect x="114" y="60" width="15" height="15" rx="2" fill="#F1C40F"/>
    
    <rect x="81" y="80" width="15" height="15" rx="2" fill="#9B59B6"/>
    <rect x="103" y="80" width="15" height="15" rx="2" fill="#1ABC9C"/>
  </g>
  
  <g transform="rotate(-45, 100, 70)">
    <rect x="95" y="40" width="10" height="30" fill="#95A5A6"/>
    <rect x="90" y="30" width="20" height="15" rx="2" fill="#7F8C8D"/>
  </g>
  
  <circle cx="130" cy="65" r="2" fill="#F1C40F"/>
  <circle cx="140" cy="75" r="2" fill="#F1C40F"/>
  <circle cx="135" cy="85" r="2" fill="#F1C40F"/>
</svg>

